<svg width="24" height="24" viewBox="0 0 24 24" fill="none" xmlns="http://www.w3.org/2000/svg">
<path d="M7.73958 3.8H7.54167C7.65052 3.8 7.73958 3.71 7.73958 3.6V3.8H15.2604V3.6C15.2604 3.71 15.3495 3.8 15.4583 3.8H15.2604V5.6H17.0417V3.6C17.0417 2.7175 16.3316 2 15.4583 2H7.54167C6.66836 2 5.95833 2.7175 5.95833 3.6V5.6H7.73958V3.8ZM20.2083 5.6H2.79167C2.35378 5.6 2 5.9575 2 6.4V7.2C2 7.31 2.08906 7.4 2.19792 7.4H3.69219L4.30326 20.475C4.34284 21.3275 5.04049 22 5.88411 22H17.1159C17.962 22 18.6572 21.33 18.6967 20.475L19.3078 7.4H20.8021C20.9109 7.4 21 7.31 21 7.2V6.4C21 5.9575 20.6462 5.6 20.2083 5.6ZM16.9254 20.2H6.07461L5.47591 7.4H17.5241L16.9254 20.2Z" fill="#00539F"/>
</svg>
