<svg width="22" height="26" viewBox="0 0 22 26" fill="none" xmlns="http://www.w3.org/2000/svg">
<path d="M3.38675 6.26775C3.45369 6.24316 3.50287 6.20683 3.54057 6.15765C3.57554 6.11011 3.59412 6.05492 3.59412 5.98798C3.59412 5.90438 3.56871 5.84181 3.52117 5.79264C3.46762 5.73772 3.40123 5.7063 3.31654 5.69209C3.26107 5.68308 3.12419 5.67188 2.79279 5.67188H2.6111V6.30928H2.8436C3.22419 6.30928 3.35014 6.27895 3.38675 6.26775Z" fill="#00539F"/>
<path d="M6.67487 7.6122C6.94972 7.6122 7.16338 7.53269 7.30927 7.37478C7.46855 7.20211 7.54997 6.93764 7.54997 6.5882C7.55134 6.27537 7.47484 6.03958 7.32129 5.8844C7.18414 5.7467 6.9877 5.67676 6.73744 5.67676C6.68225 5.67676 6.63689 5.67922 6.59782 5.68222V7.61193C6.62023 7.61247 6.64263 7.61247 6.66203 7.61247H6.67487V7.6122Z" fill="#00539F"/>
<path d="M0.405183 9.87708H13.2522C13.4721 9.87708 13.6514 9.70113 13.6514 9.47874V3.82104C13.6514 3.5981 13.4721 3.42188 13.2522 3.42188H0.396986C0.175684 3.42188 -0.00135821 3.59837 7.85249e-06 3.82104L0.00328617 9.47874C0.00437902 9.70113 0.18388 9.87708 0.405183 9.87708ZM9.42286 4.72756H12.2517V5.7084H10.581V6.21521H12.0717V7.1037H10.581V8.57085H9.42313V4.72756H9.42286ZM5.48503 4.80761L5.63858 4.77974C5.91343 4.73221 6.29101 4.70543 6.66258 4.70543C7.29534 4.70543 7.73276 4.83275 8.07892 5.11716C8.47426 5.43682 8.68354 5.93626 8.68354 6.56191C8.68354 7.38483 8.36415 7.85093 8.09695 8.09846C7.73358 8.42687 7.1989 8.5938 6.5074 8.5938C6.19566 8.5938 5.89048 8.57522 5.64486 8.54025L5.48558 8.51785V4.80761H5.48503ZM1.40296 4.72756H2.88705C3.38075 4.72756 3.69877 4.74833 3.86051 4.78712C4.11951 4.8475 4.34 4.98356 4.51513 5.19011C4.69026 5.39557 4.77714 5.66058 4.77714 5.97642C4.77714 6.21903 4.72632 6.42995 4.62605 6.60208C4.52633 6.77174 4.3971 6.90944 4.23946 7.00698C4.08755 7.1037 3.92881 7.16708 3.76871 7.20041C3.56762 7.23702 3.29086 7.2526 2.92503 7.2526H2.61165V8.57058H1.40296V4.72756Z" fill="#00539F"/>
<path d="M7.04587 20.3761H2.6422V10.6881V9.36697M20.2569 20.3761V1H2.6422V4.08257M13.211 19.2752V25M13.211 25L10.3486 22.1376M13.211 25L16.0734 22.1376M16.7339 15.7523H6.38532M6.38532 11.789H16.7339" stroke="#00539F" stroke-width="2" stroke-linejoin="round"/>
</svg>
